<svg width="17" height="17" viewBox="0 0 17 17" fill="none" xmlns="http://www.w3.org/2000/svg">
<path d="M13.0226 1.83295H5.68231C4.16208 1.83295 2.92969 3.11459 2.92969 4.69557V10.4208C2.92969 12.0018 4.16208 13.2834 5.68231 13.2834H13.0226C14.5429 13.2834 15.7752 12.0018 15.7752 10.4208V4.69557C15.7752 3.11459 14.5429 1.83295 13.0226 1.83295Z" fill="white" stroke="#636159" stroke-width="1.38674" stroke-linecap="round" stroke-linejoin="round"/>
<path d="M15.7138 5.65191L15.7752 5.65188C15.7752 5.65188 14.5429 5.65167 13.0226 5.65167H5.68231C4.16203 5.65167 2.92969 5.65211 2.92969 5.65211L15.7138 5.65191Z" fill="white" stroke="#636159" stroke-width="1.38674" stroke-linecap="round" stroke-linejoin="round"/>
<path d="M5.67969 1.83387V0.743347" stroke="#636159" stroke-width="1.38674" stroke-linecap="round" stroke-linejoin="round"/>
<path d="M13.0234 1.83387V0.743347" stroke="#636159" stroke-width="1.38674" stroke-linecap="round" stroke-linejoin="round"/>
<path d="M4.625 15.7049C6.83414 15.7049 8.625 13.914 8.625 11.7049C8.625 9.49576 6.83414 7.7049 4.625 7.7049C2.41586 7.7049 0.625 9.49576 0.625 11.7049C0.625 13.914 2.41586 15.7049 4.625 15.7049Z" fill="white" stroke="#636159" stroke-width="1.15714" stroke-linecap="round" stroke-linejoin="round"/>
<path d="M4.60938 9.70459V11.7046L5.83386 12.929" fill="white"/>
<path d="M4.60938 9.70459V11.7046L5.83386 12.929" stroke="#636159" stroke-width="1.15714" stroke-linecap="round" stroke-linejoin="round"/>
</svg>
