<svg width="18" height="20" viewBox="0 0 18 20" fill="none" xmlns="http://www.w3.org/2000/svg">
<path d="M4 4.03921V15.9623C4 17.1306 4.92338 18.0777 6.0625 18.0777H12.25C13.3891 18.0777 14.3125 17.1306 14.3125 15.9623V4.03921C14.3125 2.87092 13.3891 1.92383 12.25 1.92383H6.0625C4.92338 1.92383 4 2.87092 4 4.03921Z" stroke="#212121" stroke-width="1.5" stroke-miterlimit="10" stroke-linecap="square"/>
<path d="M10.146 4.82919H8.16646C8.14356 4.82919 8.125 4.81015 8.125 4.78667C8.125 4.76318 8.14356 4.74414 8.16646 4.74414H10.146C10.1689 4.74414 10.1875 4.76318 10.1875 4.78667C10.1875 4.81015 10.1689 4.82919 10.146 4.82919Z" stroke="#212121" stroke-width="1.5" stroke-miterlimit="10" stroke-linecap="square"/>
</svg>
